# xmcd CD database file
#
# Track frame offsets:
#	150
#	23005
#	46590
#	67775
#	95602
#	118162
#	136755
#	161367
#	187315
#	209242
#	232175
#	257692
#	281065
#	306810
#
# Disc length: 4418 seconds
#
# Revision: 3
# Processed by: cddbd v1.5.1PL2 Copyright (c) Steve Scherf et al.
# Submitted via: CDex 1.51
#
DISCID=c911400e
DTITLE=???? - SUPER BEST 2000
DYEAR=1995
DGENRE=New Age
TTITLE0=????
TTITLE1=????
TTITLE2=?????????
TTITLE3=?????????
TTITLE4=Believe
TTITLE5=????????
TTITLE6=Today
TTITLE7=???????????
TTITLE8=???????
TTITLE9=???????
TTITLE10=??
TTITLE11=?????????
TTITLE12=Kiss
TTITLE13=?????
EXTD=YEAR: 1995
EXTT0=
EXTT1=
EXTT2=
EXTT3=
EXTT4=
EXTT5=
EXTT6=
EXTT7=
EXTT8=
EXTT9=
EXTT10=
EXTT11=
EXTT12=
EXTT13=
PLAYORDER=
